<?xml version="1.0"?>
<svg xmlns="http://www.w3.org/2000/svg" xmlns:xlink="http://www.w3.org/1999/xlink" xmlns:svgjs="http://svgjs.com/svgjs" version="1.1" width="512" height="512" x="0" y="0" viewBox="0 0 256 256" style="enable-background:new 0 0 512 512" xml:space="preserve" class=""><g><rect xmlns="http://www.w3.org/2000/svg" fill="#cecece" height="191.333" rx="15.327" width="223.345" x="16.327" y="12.544" data-original="#cecece" style="" class=""/><path xmlns="http://www.w3.org/2000/svg" d="m26.327 188.55v-160.679a15.327 15.327 0 0 1 15.328-15.327h-10a15.327 15.327 0 0 0 -15.328 15.327v160.679a15.327 15.327 0 0 0 15.327 15.327h10a15.327 15.327 0 0 1 -15.327-15.327z" fill="#afafaf" data-original="#afafaf" style="" class=""/><path xmlns="http://www.w3.org/2000/svg" d="m229.673 188.55v-160.679a15.327 15.327 0 0 0 -15.327-15.327h10a15.327 15.327 0 0 1 15.327 15.327v160.679a15.327 15.327 0 0 1 -15.327 15.327h-10a15.327 15.327 0 0 0 15.327-15.327z" fill="#e2e2e2" data-original="#e2e2e2" style="" class=""/><path xmlns="http://www.w3.org/2000/svg" d="m239.673 27.871a15.327 15.327 0 0 0 -15.327-15.327h-192.691a15.327 15.327 0 0 0 -15.328 15.327v26.673h223.346z" fill="#f8af23" data-original="#f8af23" style=""/><path xmlns="http://www.w3.org/2000/svg" d="m41.655 12.544h-10a15.327 15.327 0 0 0 -15.328 15.327v26.673h10v-26.673a15.327 15.327 0 0 1 15.328-15.327z" fill="#f87023" data-original="#f87023" style=""/><path xmlns="http://www.w3.org/2000/svg" d="m214.345 12.544h10a15.327 15.327 0 0 1 15.327 15.327v26.673h-10v-26.673a15.327 15.327 0 0 0 -15.327-15.327z" fill="#f8d323" data-original="#f8d323" style="" class=""/><circle xmlns="http://www.w3.org/2000/svg" cx="43.688" cy="33.544" fill="#0093b9" r="7" data-original="#f46275" style="" class=""/><circle xmlns="http://www.w3.org/2000/svg" cx="70.65" cy="33.544" fill="#0093b9" r="7" data-original="#f46275" style="" class=""/><circle xmlns="http://www.w3.org/2000/svg" cx="97.612" cy="33.544" fill="#0093b9" r="7" data-original="#f46275" style="" class=""/><rect xmlns="http://www.w3.org/2000/svg" fill="#0093b9" height="10.667" rx="5.333" width="99.24" x="120.073" y="28.669" data-original="#f46275" style="" class=""/><circle xmlns="http://www.w3.org/2000/svg" cx="128" cy="152.357" fill="#0093b9" r="80.126" data-original="#f46275" style="" class=""/><path xmlns="http://www.w3.org/2000/svg" d="m57.874 152.357a80.118 80.118 0 0 1 75.126-79.957c-1.655-.1-3.319-.171-5-.171a80.126 80.126 0 1 0 0 160.251c1.681 0 3.345-.069 5-.171a80.118 80.118 0 0 1 -75.126-79.952z" fill="#28b7dc" data-original="#f43075" style="" class=""/><path xmlns="http://www.w3.org/2000/svg" d="m198.126 152.357a80.118 80.118 0 0 0 -75.126-79.957c1.655-.1 3.319-.171 5-.171a80.126 80.126 0 1 1 0 160.251c-1.681 0-3.345-.069-5-.171a80.118 80.118 0 0 0 75.126-79.952z" fill="#0093b9" data-original="#f48875" style="" class=""/><g xmlns="http://www.w3.org/2000/svg" fill="#3f3679"><path d="m27.323 241.956h-18a1.5 1.5 0 1 0 0 3h18a1.5 1.5 0 1 0 0-3z" fill="#3f3679" data-original="#3f3679" style="" class=""/><path d="m246.68 241.956h-18a1.5 1.5 0 0 0 0 3h18a1.5 1.5 0 0 0 0-3z" fill="#3f3679" data-original="#3f3679" style="" class=""/><path d="m218.479 241.956h-180.958a1.5 1.5 0 0 0 0 3h180.958a1.5 1.5 0 0 0 0-3z" fill="#3f3679" data-original="#3f3679" style="" class=""/><path d="m9.32 233.983h237.36a1.5 1.5 0 0 0 0-3h-96.809a81.77 81.77 0 0 0 40.114-25.605h34.36a16.846 16.846 0 0 0 16.827-16.827v-160.68a16.846 16.846 0 0 0 -16.827-16.827h-192.69a16.846 16.846 0 0 0 -16.827 16.827v160.68a16.846 16.846 0 0 0 16.827 16.827h34.36a81.77 81.77 0 0 0 40.114 25.605h-96.809a1.5 1.5 0 1 0 0 3zm8.508-206.112a13.843 13.843 0 0 1 13.827-13.827h192.691a13.843 13.843 0 0 1 13.827 13.827v25.173h-220.345zm13.827 174.507a13.843 13.843 0 0 1 -13.827-13.827v-132.507h220.345v132.507a13.843 13.843 0 0 1 -13.827 13.827h-31.911a81.626 81.626 0 1 0 -128.869 0zm17.719-50.021a78.626 78.626 0 1 1 78.626 78.626 78.715 78.715 0 0 1 -78.626-78.626z" fill="#3f3679" data-original="#3f3679" style="" class=""/><path d="m43.687 25.044a8.5 8.5 0 1 0 8.5 8.5 8.51 8.51 0 0 0 -8.5-8.5zm0 14a5.5 5.5 0 1 1 5.5-5.5 5.507 5.507 0 0 1 -5.5 5.5z" fill="#3f3679" data-original="#3f3679" style="" class=""/><path d="m70.65 25.044a8.5 8.5 0 1 0 8.5 8.5 8.51 8.51 0 0 0 -8.5-8.5zm0 14a5.5 5.5 0 1 1 5.5-5.5 5.507 5.507 0 0 1 -5.5 5.5z" fill="#3f3679" data-original="#3f3679" style="" class=""/><path d="m97.612 25.044a8.5 8.5 0 1 0 8.5 8.5 8.51 8.51 0 0 0 -8.5-8.5zm0 14a5.5 5.5 0 1 1 5.5-5.5 5.507 5.507 0 0 1 -5.5 5.5z" fill="#3f3679" data-original="#3f3679" style="" class=""/><path d="m213.979 27.169h-88.573a6.833 6.833 0 1 0 0 13.667h88.573a6.833 6.833 0 0 0 0-13.667zm0 10.667h-88.573a3.833 3.833 0 1 1 0-7.667h88.573a3.833 3.833 0 0 1 0 7.667z" fill="#3f3679" data-original="#3f3679" style="" class=""/><path d="m101.319 152.016a5.5 5.5 0 0 0 7.778-7.777l-8.449-8.449 8.449-8.449a5.5 5.5 0 0 0 -7.778-7.777l-8.448 8.448-8.448-8.448a5.5 5.5 0 0 0 -7.778 7.777l8.449 8.449-8.449 8.449a5.5 5.5 0 1 0 7.778 7.777l8.448-8.448z" fill="#3f3679" data-original="#3f3679" style="" class=""/><path d="m170.907 135.79 8.449-8.449a5.5 5.5 0 1 0 -7.777-7.777l-8.449 8.449-8.449-8.449a5.5 5.5 0 1 0 -7.777 7.777l8.449 8.449-8.449 8.449a5.5 5.5 0 1 0 7.777 7.777l8.449-8.449 8.449 8.449a5.5 5.5 0 0 0 7.777-7.777z" fill="#3f3679" data-original="#3f3679" style="" class=""/><path d="m128 173.439a30.65 30.65 0 0 0 -27.038 16.184 5.5 5.5 0 1 0 9.691 5.2 19.679 19.679 0 0 1 34.693 0 5.5 5.5 0 0 0 9.691-5.2 30.65 30.65 0 0 0 -27.037-16.184z" fill="#3f3679" data-original="#3f3679" style="" class=""/></g></g></svg>
