<?xml version="1.0"?>
<svg xmlns="http://www.w3.org/2000/svg" xmlns:xlink="http://www.w3.org/1999/xlink" xmlns:svgjs="http://svgjs.com/svgjs" version="1.1" width="512" height="512" x="0" y="0" viewBox="0 0 128 128" style="enable-background:new 0 0 512 512" xml:space="preserve" class=""><g><g xmlns="http://www.w3.org/2000/svg"><path d="m19 45.627h90a0 0 0 0 1 0 0v52.283a11.09 11.09 0 0 1 -11.09 11.09h-67.82a11.09 11.09 0 0 1 -11.09-11.09v-52.283a0 0 0 0 1 0 0z" fill="#fff69a" data-original="#fff69a" style="" class=""/><path d="m109 38.61v7.02h-90v-7.02a11.1 11.1 0 0 1 11.09-11.09h.19v3.86a4.66 4.66 0 0 0 9.32 0v-3.86h10.06v3.86a4.655 4.655 0 1 0 9.31 0v-3.86h10.06v3.86a4.655 4.655 0 1 0 9.31 0v-3.86h10.06v3.86a4.66 4.66 0 1 0 9.32 0v-3.86h.19a11.1 11.1 0 0 1 11.09 11.09z" fill="#ed917e" data-original="#ed917e" style="" class=""/><g fill="#32b1cc"><path d="m39.6 23.66v7.72a4.66 4.66 0 0 1 -9.32 0v-7.72a4.665 4.665 0 0 1 4.66-4.66 4.678 4.678 0 0 1 4.66 4.66z" fill="#0093b9" data-original="#32b1cc" style="" class=""/><path d="m58.97 23.66v7.72a4.655 4.655 0 1 1 -9.31 0v-7.72a4.655 4.655 0 1 1 9.31 0z" fill="#0093b9" data-original="#32b1cc" style="" class=""/><path d="m78.34 23.66v7.72a4.655 4.655 0 1 1 -9.31 0v-7.72a4.658 4.658 0 0 1 4.66-4.66 4.6 4.6 0 0 1 3.29 1.37 4.649 4.649 0 0 1 1.36 3.29z" fill="#0093b9" data-original="#32b1cc" style="" class=""/><path d="m97.72 23.66v7.72a4.66 4.66 0 1 1 -9.32 0v-7.72a4.665 4.665 0 0 1 4.66-4.66 4.678 4.678 0 0 1 4.66 4.66z" fill="#0093b9" data-original="#32b1cc" style="" class=""/></g><rect fill="#fdbd40" height="12.846" rx="2.89" width="12.846" x="31.728" y="57.885" data-original="#fdbd40" style="" class=""/><rect fill="#fdbd40" height="12.846" rx="2.89" width="12.846" x="57.577" y="57.885" data-original="#fdbd40" style="" class=""/><path d="m87.8 70.6a1.746 1.746 0 0 1 -1.237-.513l-4.993-4.993a1.75 1.75 0 0 1 2.474-2.475l3.756 3.756 7.846-7.846a1.75 1.75 0 0 1 2.479 2.471l-9.083 9.083a1.748 1.748 0 0 1 -1.242.517z" fill="#e97424" data-original="#e97424" style=""/><rect fill="#fdbd40" height="12.846" rx="2.89" width="12.846" x="31.728" y="81.991" data-original="#fdbd40" style="" class=""/><rect fill="#fdbd40" height="12.846" rx="2.89" width="12.846" x="57.577" y="81.991" data-original="#fdbd40" style="" class=""/><rect fill="#fdbd40" height="12.846" rx="2.89" width="12.846" x="83.426" y="81.991" data-original="#fdbd40" style="" class=""/></g></g></svg>
